# xmcd
#
# Track frame offsets: 
#        150
#        18587
#        36627
#
# Disc length: 804 seconds
#
# Revision: 1
# Processed by: cddbd v1.5.2PL0 Copyright (c) Steve Scherf et al.
# Submitted via: ExactAudioCopy v0.99pb4
#
DISCID=23032203
DTITLE=Eagles - Farewell I Tour - Bonus
DYEAR=2006
DGENRE=Classic Rock
TTITLE0=No More Cloudy Days
TTITLE1=Fast Company
TTITLE2=Do Something
EXTD=These 3 brand new songs included on the DVD "Eagles Farewell I To
EXTD=ur, Live From Melbourne
EXTT0=
EXTT1=
EXTT2=
PLAYORDER=
